<svg xmlns="http://www.w3.org/2000/svg" viewBox="0 0 32 32" width="32" height="32">
  <defs>
    <linearGradient id="bg" x1="0%" y1="0%" x2="100%" y2="100%">
      <stop offset="0%" style="stop-color:#0f0f0f"/>
      <stop offset="100%" style="stop-color:#1c1c1c"/>
    </linearGradient>
    <linearGradient id="accent" x1="0%" y1="0%" x2="100%" y2="100%">
      <stop offset="0%" style="stop-color:rgb(163, 224, 255)"/>
      <stop offset="100%" style="stop-color:rgb(123, 208, 255)"/>
    </linearGradient>
  </defs>

  <!-- Background with rounded square -->
  <rect width="32" height="32" rx="6" ry="6" fill="url(#bg)"/>

  <!-- Subtle top border accent -->
  <rect x="0" y="0" width="32" height="2" rx="1" fill="url(#accent)" opacity="0.8"/>

  <!-- Letter M -->
  <path d="M4 23 L4 10 L8 10 L11.5 16.5 L15 10 L19 10 L19 23 L16 23 L16 15 L12.5 21 L10.5 21 L7 15 L7 23 Z"
        fill="url(#accent)"/>

  <!-- Letter R -->
  <path d="M21 10 L21 23 L24 23 L24 18.5 L26.5 23 L30 23 L27 18 C28.5 17.2 29.5 15.8 29.5 14 C29.5 11.8 27.8 10 25.5 10 Z
           M24 12.5 L25.2 12.5 C26.2 12.5 27 13.2 27 14.2 C27 15.2 26.2 15.8 25.2 15.8 L24 15.8 Z"
        fill="url(#accent)"/>
</svg>